<svg id="Capa_1" enable-background="new 0 0 512 512" height="512" viewBox="0 0 512 512" width="512" xmlns="http://www.w3.org/2000/svg"><g><g><g><g><path d="m234.105 145.903v-34.452c0-7.569-6.193-13.761-13.761-13.761h-199.082c-7.569 0-13.761 6.193-13.761 13.761v56.075z" fill="#f8e883"/></g></g></g><g><g><g><path d="m439.461 414.548h-416.961c-8.25 0-15-6.75-15-15v-242.009c0-8.25 6.75-15 15-15h416.961c8.25 0 15 6.75 15 15v242.009c0 8.25-6.75 15-15 15z" fill="#faf0b0"/></g></g></g><g><g><g><path d="m220.343 97.69h-30c7.569 0 13.761 6.193 13.761 13.761v34.452h30v-34.452c.001-7.569-6.192-13.761-13.761-13.761z" fill="#f7e365"/></g></g></g><g><g><g><path d="m439.461 142.539h-30c8.25 0 15 6.75 15 15v242.009c0 8.25-6.75 15-15 15h30c8.25 0 15-6.75 15-15v-242.009c0-8.25-6.75-15-15-15z" fill="#f8e883"/></g></g></g><g><g><g><ellipse cx="454.004" cy="144.584" fill="#92e0c4" rx="50.496" ry="50.496" transform="matrix(.707 -.707 .707 .707 30.738 363.377)"/></g></g></g><g><g><g><path d="m454.004 94.088c-5.223 0-10.261.793-15 2.266 20.563 6.388 35.496 25.565 35.496 48.23s-14.933 41.842-35.496 48.23c4.739 1.472 9.777 2.266 15 2.266 27.888 0 50.496-22.608 50.496-50.496s-22.608-50.496-50.496-50.496z" fill="#77d1b3"/></g></g></g><g><g><g><path d="m205.464 272.028h-87.669c-8.25 0-15-6.75-15-15v-32.67c0-8.25 6.75-15 15-15h87.669c8.25 0 15 6.75 15 15v32.67c0 8.25-6.75 15-15 15z" fill="#f5f5f5"/></g></g></g><g><g><g><path d="m205.464 209.358h-30c8.25 0 15 6.75 15 15v32.67c0 8.25-6.75 15-15 15h30c8.25 0 15-6.75 15-15v-32.67c0-8.25-6.75-15-15-15z" fill="#e6e6e6"/></g></g></g><g><path d="m512 144.584c0-31.979-26.017-57.996-57.996-57.996-29.891 0-54.567 22.732-57.663 51.815h-154.737v-26.952c0-11.723-9.537-21.261-21.261-21.261h-117.548c-4.143 0-7.5 3.358-7.5 7.5s3.357 7.5 7.5 7.5h117.549c3.452 0 6.261 2.809 6.261 6.261v26.952h-204.105c-2.629 0-5.153.458-7.5 1.29v-28.242c0-3.452 2.809-6.261 6.262-6.261h51.533c4.143 0 7.5-3.358 7.5-7.5s-3.357-7.5-7.5-7.5h-51.533c-11.724 0-21.262 9.538-21.262 21.261v291.461c0 12.406 10.094 22.5 22.5 22.5h245.828c4.143 0 7.5-3.358 7.5-7.5s-3.357-7.5-7.5-7.5h-245.828c-4.136 0-7.5-3.365-7.5-7.5v-242.009c0-4.135 3.364-7.5 7.5-7.5h374.177c3.91 25.52 24.52 45.599 50.284 48.734v200.774c0 4.135-3.364 7.5-7.5 7.5h-141.133c-4.143 0-7.5 3.358-7.5 7.5s3.357 7.5 7.5 7.5h141.133c12.406 0 22.5-10.094 22.5-22.5v-200.89c28.226-3.892 50.039-28.158 50.039-57.437zm-57.996 42.996c-23.708 0-42.996-19.288-42.996-42.996s19.288-42.996 42.996-42.996 42.996 19.288 42.996 42.996-19.288 42.996-42.996 42.996z"/><path d="m469.132 137.084h-7.628v-7.628c0-4.142-3.357-7.5-7.5-7.5s-7.5 3.358-7.5 7.5v7.628h-7.628c-4.143 0-7.5 3.358-7.5 7.5s3.357 7.5 7.5 7.5h7.628v7.628c0 4.142 3.357 7.5 7.5 7.5s7.5-3.358 7.5-7.5v-7.628h7.628c4.143 0 7.5-3.358 7.5-7.5s-3.358-7.5-7.5-7.5z"/><path d="m227.964 224.358c0-12.406-10.094-22.5-22.5-22.5h-87.669c-12.406 0-22.5 10.094-22.5 22.5v32.67c0 12.406 10.094 22.5 22.5 22.5h87.669c12.406 0 22.5-10.094 22.5-22.5zm-15 32.67c0 4.135-3.364 7.5-7.5 7.5h-87.669c-4.136 0-7.5-3.365-7.5-7.5v-32.67c0-4.135 3.364-7.5 7.5-7.5h87.669c4.136 0 7.5 3.365 7.5 7.5z"/><path d="m220.464 298.924h-117.669c-4.143 0-7.5 3.358-7.5 7.5s3.357 7.5 7.5 7.5h117.669c4.143 0 7.5-3.358 7.5-7.5s-3.358-7.5-7.5-7.5z"/><path d="m220.464 334.463h-117.669c-4.143 0-7.5 3.358-7.5 7.5s3.357 7.5 7.5 7.5h117.669c4.143 0 7.5-3.358 7.5-7.5s-3.358-7.5-7.5-7.5z"/><path d="m278.73 313.924h72.061c4.143 0 7.5-3.358 7.5-7.5s-3.357-7.5-7.5-7.5h-72.061c-4.143 0-7.5 3.358-7.5 7.5s3.358 7.5 7.5 7.5z"/><path d="m278.73 349.463h72.061c4.143 0 7.5-3.358 7.5-7.5s-3.357-7.5-7.5-7.5h-72.061c-4.143 0-7.5 3.358-7.5 7.5s3.358 7.5 7.5 7.5z"/></g></g></svg>